<svg xmlns="http://www.w3.org/2000/svg" width="1016" height="186" viewBox="0 0 1016 186"><g><g><path d="M169.01 82.886v73.294h16.896v20.94H169.01v8.33h-20.94v-8.33H.767v-20.94H148.07v-16.896H93.337v-20.94h54.732v-16.896H93.337v-20.94h54.732v-4.999a80.889 80.889 0 0 1-20.227-14.04 82.278 82.278 0 0 1-8.686-9.637 91.365 91.365 0 0 1-7.258-11.066c-3.176-6.027-5.674-12.41-7.496-19.156-1.826-6.742-2.736-13.762-2.736-21.06h20.94c0 7.46 1.194 14.48 3.581 21.06 2.387 6.585 5.656 12.575 9.798 17.966 4.138 5.08 8.994 9.52 14.567 13.327 5.574 3.807 11.706 6.584 18.395 8.328 4.934 1.588 10.585 2.38 16.96 2.38v20.941c-6.189 0-11.822-.554-16.897-1.666z"/></g><g><path d="M355.534 168.792h-147.3v-20.94h145.634c-2.223-15.097-6.544-29.319-12.969-42.668s-14.516-25.343-24.273-35.993c-9.756-10.645-20.98-19.743-33.672-27.29-12.693-7.549-26.336-13.07-40.93-16.566V3.881c8.567 1.748 16.814 4.094 24.75 7.032a168.437 168.437 0 0 1 23.081 10.608c13.802 7.63 26.255 17.003 37.361 28.128 11.103 11.124 20.543 23.677 28.318 37.658a171.191 171.191 0 0 1 12.612 28.961c3.331 10.091 5.63 20.622 6.901 31.583h18.323v20.941h-16.895c0 2.7-.082 5.473-.238 8.328-.16 2.857-.398 5.633-.714 8.33h-20.94c.315-2.696.554-5.472.713-8.33.156-2.855.238-5.629.238-8.328z"/></g><g><path d="M592.269 168.792v16.657h-20.94v-16.657H445.207v16.657h-20.942v-16.657h-8.566v-20.94h8.329v-1.909c0-.635.077-1.272.237-1.91.317-10.021 2.339-19.406 6.069-28.158a90.54 90.54 0 0 1 14.873-23.865c7.77-8.748 17.05-15.668 27.84-20.762 10.788-5.09 22.527-7.637 35.22-7.637v20.94c-8.41 0-16.341 1.555-23.796 4.66-7.46 3.104-14.04 7.365-19.751 12.78-5.712 5.413-10.274 11.782-13.683 19.107-3.414 7.326-5.355 15.13-5.83 23.41v3.343h126.122V103.59h-33.553V82.65h33.553V.55h20.94v147.301h8.568v20.941z"/></g><g><path d="M808.302 17.446v20.94h-8.567V185.45h-20.941V38.387H652.672v3.33c.477 8.413 2.416 16.224 5.83 23.44 3.409 7.222 7.973 13.528 13.684 18.92 5.71 5.395 12.293 9.637 19.75 12.73 7.456 3.094 15.387 4.64 23.797 4.64v20.942c-12.694 0-24.433-2.536-35.218-7.615-10.791-5.075-20.071-11.976-27.843-20.703-6.186-6.98-11.147-14.873-14.873-23.677-3.73-8.805-5.752-18.205-6.067-28.2a7.75 7.75 0 0 1-.24-1.903v-1.904h-8.328V17.446h8.568V.55h20.94v16.896h126.122V.55h20.94v16.896z"/></g><g><path d="M868.465 37.434c14.595 3.176 29.307 4.129 44.144 2.857 14.832-1.268 29.23-4.76 43.191-10.471a136.474 136.474 0 0 0 18.442-9.042c5.95-3.488 11.697-7.455 17.253-11.898a118.24 118.24 0 0 0 9.756-8.33l7.852 8.33 6.663 6.9a88.973 88.973 0 0 1-8.329 7.377 409.062 409.062 0 0 1-8.804 6.663 164.94 164.94 0 0 1-30.22 17.61c-10.632 4.759-21.5 8.329-32.603 10.708a171.596 171.596 0 0 1-33.672 3.808c-11.344.16-22.57-.87-33.673-3.093V83.6c16.658 2.064 32.602 6.507 47.832 13.326 1.268.635 2.417 1.19 3.45 1.664 1.031.477 2.18 1.036 3.45 1.667 12.852 6.507 24.63 14.479 35.34 23.916 10.707 9.44 20.106 20.107 28.197 32.006 4.601 6.822 8.646 13.802 12.137 20.94 1.268 2.7 2.536 5.474 3.808 8.33h-23.083a108.455 108.455 0 0 1-2.26-4.283 49.975 49.975 0 0 0-2.26-4.046h-106.61v8.329h-20.94v-8.33h-16.897v-20.94h16.896V53.618a181.126 181.126 0 0 1-8.567-3.094 127.526 127.526 0 0 1-8.329-3.57v-23.32a76.257 76.257 0 0 0 6.783 3.45 90.778 90.778 0 0 0 6.781 2.737c.632.32 1.19.558 1.666.714.476.16 1.031.399 1.666.714V.55h20.94zm0 67.346v51.4h91.855a140.124 140.124 0 0 0-22.249-21.655c-8.174-6.343-17.014-11.817-26.534-16.42-13.485-6.663-27.842-11.103-43.072-13.326z"/></g></g></svg>