<?xml version="1.0" encoding="utf-8"?>
<!-- Generator: Adobe Illustrator 23.0.1, SVG Export Plug-In . SVG Version: 6.00 Build 0)  -->
<svg version="1.1" id="Layer_1" xmlns="http://www.w3.org/2000/svg" xmlns:xlink="http://www.w3.org/1999/xlink" x="0px" y="0px"
	 viewBox="0 0 1016 186" style="enable-background:new 0 0 1016 186;" xml:space="preserve">
<style type="text/css">
	.st0{fill:#E6E6E6;}
</style>
<g>
	<g>
		<path class="st0" d="M169,82.9v73.3h16.9v20.9H169v8.3h-20.9v-8.3H0.8v-20.9h147.3v-16.9H93.3v-20.9h54.7v-16.9H93.3V80.5h54.7v-5
			c-7.4-3.6-14.2-8.4-20.2-14c-3.1-3-6-6.2-8.7-9.6c-2.7-3.5-5.1-7.2-7.3-11.1c-3.2-6-5.7-12.4-7.5-19.2c-1.8-6.7-2.7-13.8-2.7-21.1
			h20.9c0,7.5,1.2,14.5,3.6,21.1c2.4,6.6,5.7,12.6,9.8,18c4.1,5.1,9,9.5,14.6,13.3c5.6,3.8,11.7,6.6,18.4,8.3
			c4.9,1.6,10.6,2.4,17,2.4v20.9C179.7,84.6,174.1,84,169,82.9L169,82.9z"/>
	</g>
	<g>
		<path class="st0" d="M355.5,168.8H208.2v-20.9h145.6c-2.2-15.1-6.5-29.3-13-42.7s-14.5-25.3-24.3-36c-9.8-10.6-21-19.7-33.7-27.3
			c-12.7-7.5-26.3-13.1-40.9-16.6V3.9c8.6,1.7,16.8,4.1,24.8,7c7.9,2.9,15.7,6.5,23.1,10.6c13.8,7.6,26.3,17,37.4,28.1
			c11.1,11.1,20.5,23.7,28.3,37.7c5.1,9.2,9.3,18.9,12.6,29c3.3,10.1,5.6,20.6,6.9,31.6h18.3v20.9h-16.9c0,2.7-0.1,5.5-0.2,8.3
			c-0.2,2.9-0.4,5.6-0.7,8.3h-20.9c0.3-2.7,0.6-5.5,0.7-8.3C355.5,174.3,355.5,171.5,355.5,168.8z"/>
	</g>
	<g>
		<path class="st0" d="M592.3,168.8v16.7h-20.9v-16.7H445.2v16.7h-20.9v-16.7h-8.6v-20.9h8.3v-1.9c0-0.6,0.1-1.3,0.2-1.9
			c0.3-10,2.3-19.4,6.1-28.2c3.7-8.7,8.7-16.7,14.9-23.9c7.8-8.7,17-15.7,27.8-20.8c10.8-5.1,22.5-7.6,35.2-7.6v20.9
			c-8.4,0-16.3,1.6-23.8,4.7c-7.5,3.1-14,7.4-19.8,12.8c-5.7,5.4-10.3,11.8-13.7,19.1c-3.4,7.3-5.4,15.1-5.8,23.4v3.3h126.1v-44.3
			h-33.6V82.7h33.6V0.6h20.9v147.3h8.6v20.9L592.3,168.8z"/>
	</g>
	<g>
		<path class="st0" d="M808.3,17.4v20.9h-8.6v147.1h-20.9V38.4H652.7v3.3c0.5,8.4,2.4,16.2,5.8,23.4c3.4,7.2,8,13.5,13.7,18.9
			c5.7,5.4,12.3,9.6,19.8,12.7c7.5,3.1,15.4,4.6,23.8,4.6v20.9c-12.7,0-24.4-2.5-35.2-7.6c-10.8-5.1-20.1-12-27.8-20.7
			c-6.2-7-11.1-14.9-14.9-23.7c-3.7-8.8-5.8-18.2-6.1-28.2c-0.2-0.6-0.2-1.3-0.2-1.9v-1.9h-8.3V17.4h8.6V0.6h20.9v16.9h126.1V0.6
			h20.9v16.9H808.3z"/>
	</g>
	<g>
		<path class="st0" d="M868.5,37.4c14.6,3.2,29.3,4.1,44.1,2.9c14.8-1.3,29.2-4.8,43.2-10.5c6.4-2.5,12.5-5.6,18.4-9
			c6-3.5,11.7-7.5,17.3-11.9c3.4-2.6,6.7-5.4,9.8-8.3l7.9,8.3l6.7,6.9c-2.6,2.6-5.4,5.1-8.3,7.4c-2.9,2.3-5.8,4.5-8.8,6.7
			c-9.4,6.9-19.6,12.8-30.2,17.6c-10.6,4.8-21.5,8.3-32.6,10.7c-11.1,2.4-22.3,3.7-33.7,3.8c-11.3,0.2-22.6-0.9-33.7-3.1v24.7
			c16.7,2.1,32.6,6.5,47.8,13.3c1.3,0.6,2.4,1.2,3.5,1.7c1,0.5,2.2,1,3.5,1.7c12.9,6.5,24.6,14.5,35.3,23.9
			c10.7,9.4,20.1,20.1,28.2,32c4.6,6.8,8.6,13.8,12.1,20.9c1.3,2.7,2.5,5.5,3.8,8.3h-23.1c-0.8-1.4-1.5-2.8-2.3-4.3
			c-0.7-1.4-1.4-2.7-2.3-4H868.5v8.3h-20.9v-8.3h-16.9v-20.9h16.9V53.6c-2.9-1-5.7-2-8.6-3.1c-2.8-1.1-5.6-2.3-8.3-3.6V23.6
			c2.2,1.3,4.5,2.4,6.8,3.5c2.2,1,4.5,1.9,6.8,2.7c0.6,0.3,1.2,0.6,1.7,0.7c0.5,0.2,1,0.4,1.7,0.7V0.6h20.9L868.5,37.4z
			 M868.5,104.8v51.4h91.9c-6.6-8-14.1-15.3-22.2-21.7c-8.2-6.3-17-11.8-26.5-16.4C898.1,111.4,883.7,107,868.5,104.8L868.5,104.8z"
			/>
	</g>
</g>
</svg>
