<svg id="Layer_1" data-name="Layer 1" xmlns="http://www.w3.org/2000/svg" viewBox="0 0 135.01 134.91"><title>logo_dark</title><g id="Layer_1-2" data-name="Layer 1-2"><path d="M76,134.35c13-1.72,24.77-6.55,34.71-15.13C130,102.57,138,81.35,134,56.28c-3.72-23-16.85-39.58-37.76-49.91A64.35,64.35,0,0,0,78.59.85a2.66,2.66,0,0,0-2.71.82c-2.66,2.78-5.39,5.5-8.16,8.16-.89.85-.77,1.34,0,2.13,3.06,3,6.06,6,9.06,9a4.26,4.26,0,0,0,2.06,1.17,43.52,43.52,0,0,1,16.78,8.08c13.6,10.76,19.81,24.86,18.25,42.12A43.77,43.77,0,0,1,101.08,99.7c-11.18,11.38-24.83,16-40.61,13.81a44.63,44.63,0,0,1-29-16.44A45.31,45.31,0,0,1,21.36,60.4,45.12,45.12,0,0,1,38,31.35,44.89,44.89,0,0,1,64.49,20.9c1.2-.07,2.4-.2,3.62-.3-.11-.63-.54-.87-.86-1.19-2.44-2.46-4.86-4.94-7.37-7.34-.91-.87-1-1.42,0-2.33,2.87-2.75,5.65-5.6,8.45-8.41.31-.32.75-.56.84-1.24A53.66,53.66,0,0,0,58.06.61,66.06,66.06,0,0,0,26.71,13.72C10.53,26.25,1.71,42.82.15,63.17A65.69,65.69,0,0,0,1.57,81.93c7.27,33.87,40,56.94,74.4,52.42" transform="translate(0 0)" fill="#212529"/></g></svg>