<?xml version="1.0" encoding="utf-8"?>
<!-- Generator: Adobe Illustrator 23.0.1, SVG Export Plug-In . SVG Version: 6.00 Build 0)  -->
<svg version="1.1" id="Layer_1" xmlns="http://www.w3.org/2000/svg" xmlns:xlink="http://www.w3.org/1999/xlink" x="0px" y="0px"
	 viewBox="0 0 135 134.9" style="enable-background:new 0 0 135 134.9;" xml:space="preserve">
<style type="text/css">
	.st0{fill:#E6E6E6;}
</style>
<title>Asset 1</title>
<g>
	<g id="Layer_1-2">
		<path class="st0" d="M76,134.4c13-1.7,24.8-6.6,34.7-15.1c19.3-16.7,27.3-38,23.3-63c-3.7-23-16.8-39.6-37.8-49.9
			c-5.6-2.7-11.5-4.5-17.7-5.5c-1-0.3-2,0.1-2.7,0.8c-2.7,2.8-5.4,5.5-8.2,8.2c-0.9,0.9-0.8,1.3,0,2.1c3.1,3,6.1,6,9.1,9
			c0.6,0.6,1.3,1,2.1,1.2c6.1,1.5,11.8,4.2,16.8,8.1c13.6,10.8,19.8,24.9,18.3,42.1c-0.9,10.4-5.4,20.1-12.8,27.4
			c-11.2,11.4-24.8,16-40.6,13.8c-11.4-1.5-21.8-7.4-29-16.4c-8.6-10.1-12.3-23.6-10.1-36.7c1.6-11.6,7.5-22,16.6-29.1
			c7.5-6.3,16.8-9.9,26.5-10.5c1.2-0.1,2.4-0.2,3.6-0.3c-0.1-0.6-0.5-0.9-0.9-1.2c-2.4-2.5-4.9-4.9-7.4-7.3c-0.9-0.9-1-1.4,0-2.3
			c2.9-2.8,5.6-5.6,8.5-8.4c0.3-0.3,0.8-0.6,0.8-1.2C65.4,0,61.7,0.2,58,0.7c-11.4,1.5-22.2,6-31.3,13C10.5,26.3,1.7,42.8,0.2,63.2
			c-0.4,6.3,0,12.6,1.4,18.8C8.8,115.8,41.6,138.9,76,134.4"/>
	</g>
</g>
</svg>
